<svg width="598" height="744" viewBox="0 0 598 744" fill="none" xmlns="http://www.w3.org/2000/svg">
<path d="M491.044 199.06L490.953 193.719L491.044 199.06L546.172 198.125L515.486 244.071C512.508 248.529 515.052 254.581 520.322 255.573L574.485 265.762L535.192 304.619C531.382 308.388 532.656 314.823 537.614 316.855L588.598 337.755L542.304 367.929C537.817 370.854 537.77 377.409 542.213 380.398L587.932 411.158L536.532 431.409L538.49 436.378L536.532 431.409C531.552 433.371 530.186 439.777 533.933 443.6L572.512 482.964L518.114 492.459C512.843 493.379 510.216 499.376 513.113 503.875L542.969 550.234L487.805 548.583C482.457 548.423 478.676 553.766 480.607 558.755L500.512 610.212L446.844 597.483L445.612 602.68L446.844 597.483C441.639 596.248 436.858 600.72 437.744 605.996L446.88 660.44L396.909 637.159C392.058 634.899 386.473 638.317 386.278 643.665L384.27 698.862L340.042 665.986C335.745 662.793 329.582 665.017 328.316 670.219L315.247 723.905L278.57 682.785L274.584 686.341L278.57 682.785C275.004 678.788 268.514 679.726 266.227 684.571L242.638 734.545L215.009 686.867C212.321 682.228 205.77 681.842 202.555 686.131L169.415 730.348L151.961 678.062L146.894 679.753L151.961 678.061C150.262 672.974 143.919 671.276 139.906 674.835L98.5765 711.487L92.0072 656.729C91.3682 651.402 85.493 648.462 80.8459 651.143L33.0202 678.734L37.6047 623.743C38.0504 618.396 32.8859 614.333 27.7939 616.025L-24.5709 633.431L-9.01839 580.453C-7.50725 575.305 -11.7485 570.288 -17.0763 570.921L-71.8405 577.432L-45.9522 528.633C-43.4388 523.895 -46.583 518.13 -51.9271 517.677L-106.854 513.027L-71.6846 470.406C-68.2728 466.271 -70.1916 459.996 -75.3322 458.476L-128.176 442.852L-85.1627 408.157C-80.9927 404.794 -81.6088 398.265 -86.3339 395.741L-134.935 369.779L-85.8361 344.436C-81.0782 341.98 -80.3678 335.466 -84.4838 332.042L-126.85 296.8L-73.6786 281.85C-68.5268 280.401 -66.5197 274.168 -69.8587 269.985L-104.253 226.903L-49.189 222.961C-43.8526 222.579 -40.6322 216.88 -43.058 212.111L-47.8187 214.533L-43.058 212.111L-68.0674 162.951L-13.3703 170.178C-8.06674 170.879 -3.76428 165.946 -5.17911 160.787L-19.775 107.563L32.3116 125.662C37.3658 127.418 42.5753 123.453 42.2281 118.113L38.6457 63.0096L85.9878 91.2336C90.5855 93.9746 96.49 91.1384 97.2242 85.8362L104.802 31.1134L145.462 68.3024C149.414 71.917 155.773 70.3269 157.559 65.2777L175.983 13.18L208.301 57.8083C211.444 62.1486 217.999 61.8712 220.764 57.2805L249.275 9.94225L271.933 60.1823C274.137 65.0702 280.618 66.118 284.25 62.1736L321.677 21.5312L333.751 75.3285C334.925 80.5627 341.067 82.894 345.419 79.7579L390.226 47.4714L391.224 102.628L396.564 102.531L391.224 102.628C391.321 107.993 396.869 111.512 401.764 109.314L399.576 104.442L401.764 109.314L452.117 86.7004L441.997 140.963L447.248 141.942L441.997 140.963C441.014 146.238 445.741 150.801 450.978 149.632L449.814 144.419L450.978 149.632L504.818 137.613L483.991 188.763C481.968 193.732 485.68 199.151 491.044 199.06ZM549.057 550.416L549.048 550.416C549.051 550.416 549.054 550.416 549.057 550.416ZM447.888 666.448C447.888 666.444 447.887 666.44 447.886 666.436L447.888 666.448ZM452.393 663.008C452.396 663.01 452.399 663.011 452.402 663.013L452.393 663.008ZM245.701 739.831L245.695 739.821C245.697 739.824 245.699 739.828 245.701 739.831ZM93.9972 715.548C94 715.545 94.0028 715.543 94.0057 715.54L93.9972 715.548ZM-74.7089 582.839L-74.7035 582.828C-74.7053 582.832 -74.7071 582.835 -74.7089 582.839ZM-134.035 441.12C-134.031 441.121 -134.026 441.122 -134.022 441.124L-134.035 441.12ZM-140.358 372.578L-140.353 372.576L-140.358 372.578L-141.828 369.73L-140.358 372.578ZM-108.054 222.142C-108.052 222.145 -108.049 222.148 -108.047 222.151L-108.054 222.142L-110.559 224.141L-108.054 222.142ZM-74.1051 162.153L-74.1015 162.153C-74.1027 162.153 -74.1039 162.153 -74.1052 162.153L-73.6853 158.976L-74.1051 162.153ZM-21.3859 101.689C-21.3855 101.691 -21.3852 101.692 -21.3848 101.693L-21.3859 101.689L-24.4766 102.537L-21.3859 101.689ZM246.762 4.36999L246.765 4.37649C246.764 4.37433 246.763 4.37215 246.762 4.36999ZM390.116 41.3501L390.116 41.3537L390.116 41.3501L393.32 41.2921L390.116 41.3501ZM510.793 136.279C510.792 136.279 510.791 136.279 510.79 136.279L510.793 136.279L510.095 133.151L510.793 136.279Z" stroke="url(#paint0_linear_24_540)" stroke-opacity="0.37" stroke-width="10.6827"/>
<defs>
<linearGradient id="paint0_linear_24_540" x1="531.268" y1="25.0817" x2="-6.02648" y2="667.334" gradientUnits="userSpaceOnUse">
<stop stop-color="#FEACAE" stop-opacity="0.57"/>
<stop offset="1" stop-color="#FEACAE" stop-opacity="0"/>
</linearGradient>
</defs>
</svg>
