<svg width="51" height="24" viewBox="0 0 51 24" fill="none" xmlns="http://www.w3.org/2000/svg">
<path d="M24.1186 11.3211V18.1137H22.2354V1.33902H27.2301C27.8263 1.32477 28.4191 1.44576 28.9742 1.69501C29.5293 1.94426 30.0358 2.31683 30.4645 2.79123C30.8974 3.23683 31.242 3.7833 31.475 4.39393C31.708 5.00455 31.8241 5.66518 31.8155 6.33142C31.8279 7.00121 31.7136 7.66616 31.4804 8.28068C31.2472 8.89519 30.9006 9.44475 30.4645 9.89168C29.5911 10.8447 28.5129 11.3207 27.2301 11.3198H24.1186V11.3211ZM24.1186 3.40424V9.25994H27.2769C27.6232 9.27168 27.9677 9.2006 28.2886 9.05126C28.6095 8.90191 28.8996 8.67759 29.1403 8.39262C29.3798 8.12619 29.5702 7.80751 29.7002 7.45543C29.8302 7.10334 29.8972 6.72501 29.8972 6.34279C29.8972 5.96058 29.8302 5.58224 29.7002 5.23016C29.5702 4.87808 29.3798 4.5594 29.1403 4.29297C28.9026 4.002 28.6135 3.77217 28.2922 3.61872C27.971 3.46528 27.6249 3.39171 27.2769 3.4029H24.1186V3.40424Z" fill="#2D2D2D"/>
<path d="M36.1556 6.26172C37.5476 6.26172 38.6464 6.68734 39.4519 7.5386C40.2575 8.38985 40.6599 9.55697 40.6591 11.04V18.1136H38.8577V16.5209H38.7758C37.996 17.8326 36.9588 18.4884 35.6643 18.4884C34.5593 18.4884 33.6348 18.1136 32.8909 17.3641C32.5338 17.0201 32.2484 16.5893 32.0553 16.103C31.8623 15.6168 31.7665 15.0874 31.7749 14.5534C31.7749 13.3657 32.1672 12.4212 32.9517 11.7199C33.7362 11.0186 34.7835 10.667 36.0936 10.6652C37.2119 10.6652 38.1328 10.8994 38.8565 11.3679V10.8753C38.8587 10.5113 38.79 10.1513 38.6554 9.8214C38.5209 9.49151 38.3239 9.20002 38.0786 8.96805C37.5806 8.45393 36.9316 8.1734 36.2609 8.18239C35.2089 8.18239 34.3764 8.6901 33.7635 9.70554L32.1048 8.51031C33.0172 7.01125 34.3675 6.26172 36.1556 6.26172ZM33.719 14.6002C33.7178 14.8745 33.7738 15.1451 33.8825 15.3896C33.9911 15.634 34.1492 15.8452 34.3437 16.0056C34.7602 16.3805 35.2772 16.5791 35.807 16.5677C36.6017 16.5662 37.3635 16.2043 37.9254 15.5612C38.5493 14.8893 38.8612 14.101 38.8612 13.1962C38.274 12.6608 37.4552 12.3931 36.4048 12.3931C35.6397 12.3931 35.0018 12.6042 34.4911 13.0262C33.9752 13.4545 33.719 13.9752 33.719 14.6002Z" fill="#303030"/>
<path d="M50.9998 6.63623L44.7113 23.1727H42.7672L45.1008 17.3866L40.9658 6.63623H43.0129L46.0015 14.881H46.0425L48.9493 6.63623H50.9998Z" fill="#303030"/>
<path d="M16.5085 9.85694C16.5092 9.20024 16.4606 8.54467 16.3634 7.89746H8.4209V11.609H12.97C12.8769 12.2017 12.6799 12.7668 12.3908 13.2701C12.1017 13.7734 11.7265 14.2046 11.2879 14.5375V16.9467H14.0029C15.5926 15.2696 16.5085 12.7895 16.5085 9.85694Z" fill="#4D4D4D"/>
<path d="M8.42239 19.2744C10.6952 19.2744 12.6089 18.4204 14.0044 16.9481L11.2894 14.5389C10.5338 15.1252 9.56054 15.4598 8.42239 15.4598C6.22562 15.4598 4.36106 13.7653 3.69431 11.4819H0.897461V13.9647C1.59845 15.5608 2.67333 16.9025 4.00211 17.8401C5.33089 18.7777 6.86127 19.2743 8.42239 19.2744Z" fill="#292929"/>
<path d="M3.69365 11.4816C3.34116 10.2851 3.34116 8.98938 3.69365 7.79287V5.31006H0.896806C0.307112 6.65272 0 8.13458 0 9.63725C0 11.1399 0.307112 12.6218 0.896806 13.9644L3.69365 11.4816Z" fill="#7B7B7B"/>
<path d="M8.42239 3.8152C9.62346 3.79275 10.784 4.312 11.6532 5.26072L14.057 2.51022C12.5327 0.872061 10.5134 -0.0273132 8.42239 0.000632264C6.86127 0.000713676 5.33089 0.497269 4.00211 1.43486C2.67333 2.37245 1.59845 3.71418 0.897461 5.31024L3.6943 7.79306C4.36106 5.50967 6.22562 3.8152 8.42239 3.8152Z" fill="#646464"/>
</svg>
